# xmcd
#
# Track frame offsets:
#	170
#	21650
#	39227
#	72520
#	91532
#	112652
#	143557
#	156230
#	192152
#	198432
#	211600
#	226972
#	243590
#	274032
#
# Disc length: 4024 seconds
#
# Revision: 1
# Processed by: cddbd v1.4PL0 Copyright (c) Steve Scherf et al.
# Submitted via: audiograbber 1.80.04
#
DISCID=b50fb60e
DTITLE=Kila - Tog e Go Bog e
DYEAR=1900
DGENRE=
TTITLE0=Gwerzy
TTITLE1=On Taobh Tuathail Amach
TTITLE2=Rusty Nails
TTITLE3=Oh To Kiss Katie
TTITLE4=Tog e Go Bog e
TTITLE5=Jasmine
TTITLE6=The Seige of Carrickfinn International Airport
TTITLE7=Dusty Wine Bottle
TTITLE8=Bi Ann
TTITLE9=Leanfaidh Me
TTITLE10=Crann na bPingini
TTITLE11=Double Knuckle Shuffle
TTITLE12=Ril a Do
TTITLE13=Tip Toe
EXTD=
EXTT0=
EXTT1=
EXTT2=
EXTT3=
EXTT4=
EXTT5=
EXTT6=
EXTT7=
EXTT8=
EXTT9=
EXTT10=
EXTT11=
EXTT12=
EXTT13=
PLAYORDER=
